<svg id="svg" version="1.1" width="400" height="400" viewBox="0, 0, 400,400" xmlns="http://www.w3.org/2000/svg" xmlns:bx="https://boxy-svg.com">
  <defs></defs>
  <g id="svgg">
    <path id="path0" d="M 40.254 0 C 40.254 0 26 0 13 13 C 0 26 0 40 0 40 L 0 360 C 0 360 0 374 13 387 C 26 400 40 400 40 400 L 360 400 C 360 400 374 400 387 387 C 400 374 400 360 400 360 C 400 360 400 40 400 40 C 400 40 400 26 387 13 C 374 0 360 0 360 0 M 70 350 L 285 350 L 330 305 L 330 222.5 L 307.5 200 L 330 177.5 L 330 95 L 285 50 L 70 50 M 243 95 L 243 177.5 L 157 177.5 L 157 95 M 243 305 C 243 305 157 305 157 305 C 157 305 157 222.5 157 222.5 L 243 222.5" stroke="none" fill="white" fill-rule="evenodd"></path>
  </g>
</svg>