<svg id="svg" version="1.1" xmlns="http://www.w3.org/2000/svg" xmlns:xlink="http://www.w3.org/1999/xlink" width="400" height="400" viewBox="0, 0, 400,400"><g id="svgg"><path id="path0" d="M71.200 199.600 L 71.200 350.000 178.509 350.000 L 285.817 350.000 307.309 328.484 L 328.800 306.968 328.798 264.184 L 328.797 221.400 318.438 210.995 C 312.740 205.272,308.016 200.300,307.939 199.945 C 307.851 199.537,311.655 195.380,318.300 188.622 L 328.800 177.943 328.800 135.194 L 328.800 92.444 307.178 70.822 L 285.556 49.200 178.378 49.200 L 71.200 49.200 71.200 199.600 M242.167 92.243 C 242.739 92.462,242.800 96.623,242.800 135.245 L 242.800 178.004 199.900 177.902 L 157.000 177.800 156.898 135.931 C 156.833 109.304,156.939 93.686,157.188 93.031 L 157.580 92.000 199.557 92.000 C 222.645 92.000,241.819 92.109,242.167 92.243 M242.800 263.953 L 242.800 306.707 241.900 306.948 C 240.027 307.450,157.788 307.228,157.280 306.720 C 156.772 306.212,156.550 223.973,157.052 222.100 L 157.293 221.200 200.047 221.200 L 242.800 221.200 242.800 263.953 " stroke="none" fill="#9b4bab" fill-rule="evenodd"></path><path id="path1" d="M43.879 0.295 C 42.684 0.389,41.874 0.664,41.736 1.023 C 41.603 1.369,40.971 1.600,40.157 1.600 C 39.411 1.600,38.800 1.780,38.800 2.000 C 38.800 2.220,38.273 2.400,37.629 2.400 C 36.984 2.400,36.187 2.670,35.857 3.000 C 35.527 3.330,34.884 3.600,34.429 3.600 C 33.973 3.600,33.600 3.780,33.600 4.000 C 33.600 4.220,33.150 4.400,32.600 4.400 C 31.978 4.400,31.600 4.627,31.600 5.000 C 31.600 5.373,31.222 5.600,30.600 5.600 C 30.050 5.600,29.600 5.780,29.600 6.000 C 29.600 6.220,29.234 6.400,28.787 6.400 C 28.341 6.400,27.871 6.670,27.745 7.000 C 27.618 7.330,27.264 7.600,26.957 7.600 C 26.651 7.600,26.400 7.780,26.400 8.000 C 26.400 8.220,26.065 8.400,25.656 8.400 C 25.247 8.400,24.574 8.850,24.161 9.400 C 23.748 9.950,23.183 10.400,22.905 10.400 C 22.627 10.400,22.400 10.593,22.400 10.829 C 22.400 11.353,21.394 12.400,20.891 12.400 C 20.689 12.400,20.001 12.850,19.362 13.400 C 18.723 13.949,18.065 14.399,17.900 14.400 C 17.735 14.400,17.600 14.670,17.600 15.000 C 17.600 15.330,17.407 15.600,17.171 15.600 C 16.618 15.600,15.600 16.618,15.600 17.171 C 15.600 17.407,15.407 17.600,15.171 17.600 C 14.734 17.600,13.600 18.575,13.600 18.951 C 13.600 19.065,13.150 19.644,12.600 20.238 C 12.050 20.831,11.600 21.561,11.600 21.858 C 11.600 22.156,11.330 22.400,11.000 22.400 C 10.670 22.400,10.400 22.593,10.400 22.829 C 10.400 23.332,9.403 24.399,8.929 24.403 C 8.547 24.407,7.600 26.315,7.600 27.080 C 7.600 27.366,7.330 27.600,7.000 27.600 C 6.627 27.600,6.400 27.978,6.400 28.600 C 6.400 29.150,6.220 29.600,6.000 29.600 C 5.780 29.600,5.600 30.050,5.600 30.600 C 5.600 31.222,5.373 31.600,5.000 31.600 C 4.627 31.600,4.400 31.978,4.400 32.600 C 4.400 33.150,4.220 33.600,4.000 33.600 C 3.780 33.600,3.600 34.028,3.600 34.551 C 3.600 35.074,3.330 35.726,3.000 36.000 C 2.670 36.274,2.400 36.915,2.400 37.425 C 2.400 37.935,2.220 38.464,2.000 38.600 C 1.780 38.736,1.600 39.647,1.600 40.624 C 1.600 41.853,1.433 42.400,1.057 42.400 C 0.033 42.400,0.000 47.364,0.000 199.798 C 0.000 352.435,0.040 358.400,1.059 358.400 C 1.424 358.400,1.600 358.922,1.600 360.000 C 1.600 360.880,1.780 361.600,2.000 361.600 C 2.220 361.600,2.400 362.050,2.400 362.600 C 2.400 363.222,2.627 363.600,3.000 363.600 C 3.381 363.600,3.611 364.002,3.629 364.700 C 3.645 365.305,4.007 366.340,4.434 367.000 C 4.860 367.660,5.318 368.515,5.451 368.900 C 5.584 369.285,5.852 369.600,6.047 369.600 C 6.241 369.600,6.400 370.050,6.400 370.600 C 6.400 371.222,6.627 371.600,7.000 371.600 C 7.340 371.600,7.600 371.959,7.600 372.429 C 7.600 373.314,8.466 374.400,9.171 374.400 C 9.407 374.400,9.600 374.850,9.600 375.400 C 9.600 375.950,9.780 376.400,10.000 376.400 C 10.220 376.400,10.400 376.670,10.400 377.000 C 10.400 377.330,10.593 377.600,10.829 377.600 C 11.534 377.600,12.400 378.686,12.400 379.571 C 12.400 380.041,12.660 380.400,13.000 380.400 C 13.330 380.400,13.600 380.593,13.600 380.829 C 13.600 381.382,14.618 382.400,15.171 382.400 C 15.407 382.400,15.600 382.593,15.600 382.829 C 15.600 383.382,16.618 384.400,17.171 384.400 C 17.407 384.400,17.600 384.593,17.600 384.829 C 17.600 385.382,18.618 386.400,19.171 386.400 C 19.407 386.400,19.600 386.593,19.600 386.829 C 19.600 387.382,20.618 388.400,21.171 388.400 C 21.407 388.400,21.600 388.670,21.600 389.000 C 21.600 389.330,21.915 389.606,22.300 389.613 C 23.165 389.628,24.400 390.529,24.400 391.144 C 24.400 391.395,24.850 391.600,25.400 391.600 C 25.950 391.600,26.400 391.780,26.400 392.000 C 26.400 392.220,26.651 392.400,26.957 392.400 C 27.264 392.400,27.618 392.670,27.745 393.000 C 27.871 393.330,28.341 393.600,28.787 393.600 C 29.234 393.600,29.600 393.780,29.600 394.000 C 29.600 394.220,30.050 394.400,30.600 394.400 C 31.222 394.400,31.600 394.627,31.600 395.000 C 31.600 395.373,31.978 395.600,32.600 395.600 C 33.150 395.600,33.600 395.780,33.600 396.000 C 33.600 396.220,34.230 396.400,35.000 396.400 C 35.978 396.400,36.400 396.581,36.400 397.000 C 36.400 397.369,36.775 397.600,37.376 397.600 C 37.913 397.600,38.464 397.780,38.600 398.000 C 38.736 398.220,39.467 398.400,40.224 398.400 C 41.118 398.400,41.600 398.591,41.600 398.944 C 41.600 399.966,45.757 399.993,200.000 399.993 C 354.243 399.993,358.400 399.966,358.400 398.944 C 358.400 398.576,358.917 398.400,360.000 398.400 C 360.880 398.400,361.600 398.220,361.600 398.000 C 361.600 397.780,362.050 397.600,362.600 397.600 C 363.222 397.600,363.600 397.373,363.600 397.000 C 363.600 396.627,363.978 396.400,364.600 396.400 C 365.150 396.400,365.600 396.220,365.600 396.000 C 365.600 395.780,366.028 395.600,366.551 395.600 C 367.074 395.600,367.726 395.330,368.000 395.000 C 368.274 394.670,368.746 394.400,369.049 394.400 C 369.352 394.400,369.600 394.220,369.600 394.000 C 369.600 393.780,370.050 393.600,370.600 393.600 C 371.222 393.600,371.600 393.373,371.600 393.000 C 371.600 392.660,371.959 392.400,372.429 392.400 C 373.314 392.400,374.400 391.534,374.400 390.829 C 374.400 390.593,374.850 390.400,375.400 390.400 C 375.950 390.400,376.400 390.220,376.400 390.000 C 376.400 389.780,376.670 389.600,377.000 389.600 C 377.330 389.600,377.600 389.395,377.600 389.144 C 377.600 388.529,378.835 387.628,379.700 387.613 C 380.085 387.606,380.400 387.330,380.400 387.000 C 380.400 386.670,380.593 386.400,380.829 386.400 C 381.064 386.400,381.514 386.143,381.829 385.829 C 382.143 385.514,382.400 385.064,382.400 384.829 C 382.400 384.593,382.593 384.400,382.829 384.400 C 383.064 384.400,383.514 384.143,383.829 383.829 C 384.143 383.514,384.400 383.064,384.400 382.829 C 384.400 382.593,384.593 382.400,384.829 382.400 C 385.064 382.400,385.514 382.143,385.829 381.829 C 386.143 381.514,386.400 381.064,386.400 380.829 C 386.400 380.593,386.593 380.400,386.829 380.400 C 387.362 380.400,388.400 379.390,388.400 378.871 C 388.400 378.659,388.670 378.382,389.000 378.255 C 389.330 378.129,389.600 377.702,389.600 377.307 C 389.600 376.913,390.050 376.252,390.600 375.839 C 391.150 375.426,391.600 374.753,391.600 374.344 C 391.600 373.935,391.780 373.600,392.000 373.600 C 392.220 373.600,392.400 373.349,392.400 373.043 C 392.400 372.736,392.670 372.382,393.000 372.255 C 393.330 372.129,393.600 371.659,393.600 371.213 C 393.600 370.766,393.780 370.400,394.000 370.400 C 394.220 370.400,394.400 369.950,394.400 369.400 C 394.400 368.778,394.627 368.400,395.000 368.400 C 395.373 368.400,395.600 368.022,395.600 367.400 C 395.600 366.850,395.780 366.400,396.000 366.400 C 396.220 366.400,396.400 365.770,396.400 365.000 C 396.400 364.022,396.581 363.600,397.000 363.600 C 397.373 363.600,397.600 363.222,397.600 362.600 C 397.600 362.050,397.780 361.600,398.000 361.600 C 398.220 361.600,398.400 360.880,398.400 360.000 C 398.400 358.922,398.576 358.400,398.941 358.400 C 399.960 358.400,400.000 352.437,400.000 200.000 C 400.000 47.563,399.960 41.600,398.941 41.600 C 398.591 41.600,398.400 41.114,398.400 40.224 C 398.400 39.467,398.220 38.736,398.000 38.600 C 397.780 38.464,397.600 37.933,397.600 37.419 C 397.600 36.906,397.330 36.382,397.000 36.255 C 396.649 36.121,396.400 35.521,396.400 34.813 C 396.400 34.146,396.220 33.600,396.000 33.600 C 395.780 33.600,395.600 33.150,395.600 32.600 C 395.600 31.978,395.373 31.600,395.000 31.600 C 394.627 31.600,394.400 31.222,394.400 30.600 C 394.400 30.050,394.220 29.600,394.000 29.600 C 393.780 29.600,393.600 29.234,393.600 28.787 C 393.600 28.341,393.330 27.871,393.000 27.745 C 392.670 27.618,392.400 27.264,392.400 26.957 C 392.400 26.651,392.220 26.400,392.000 26.400 C 391.780 26.400,391.600 26.065,391.600 25.656 C 391.600 25.247,391.150 24.574,390.600 24.161 C 390.050 23.748,389.600 23.183,389.600 22.905 C 389.600 22.627,389.351 22.400,389.046 22.400 C 388.741 22.400,388.192 21.770,387.827 21.000 C 387.461 20.230,386.991 19.600,386.781 19.600 C 386.572 19.600,386.400 19.407,386.400 19.171 C 386.400 18.618,385.382 17.600,384.829 17.600 C 384.593 17.600,384.400 17.407,384.400 17.171 C 384.400 16.618,383.382 15.600,382.829 15.600 C 382.593 15.600,382.400 15.407,382.400 15.171 C 382.400 14.618,381.382 13.600,380.829 13.600 C 380.593 13.600,380.400 13.364,380.400 13.075 C 380.400 12.786,379.770 12.302,379.000 12.000 C 378.230 11.698,377.600 11.214,377.600 10.925 C 377.600 10.636,377.373 10.400,377.095 10.400 C 376.817 10.400,376.252 9.950,375.839 9.400 C 375.426 8.850,374.753 8.400,374.344 8.400 C 373.935 8.400,373.600 8.220,373.600 8.000 C 373.600 7.780,373.349 7.600,373.043 7.600 C 372.736 7.600,372.382 7.330,372.255 7.000 C 372.129 6.670,371.659 6.400,371.213 6.400 C 370.766 6.400,370.400 6.220,370.400 6.000 C 370.400 5.780,369.950 5.600,369.400 5.600 C 368.778 5.600,368.400 5.373,368.400 5.000 C 368.400 4.627,368.022 4.400,367.400 4.400 C 366.850 4.400,366.400 4.220,366.400 4.000 C 366.400 3.780,365.972 3.600,365.449 3.600 C 364.926 3.600,364.274 3.330,364.000 3.000 C 363.726 2.670,363.074 2.400,362.551 2.400 C 362.028 2.400,361.600 2.220,361.600 2.000 C 361.600 1.780,360.880 1.600,360.000 1.600 C 358.917 1.600,358.400 1.424,358.400 1.056 C 358.400 0.698,357.681 0.425,356.300 0.259 C 354.109 -0.004,47.242 0.031,43.879 0.295 M307.178 70.822 L 328.800 92.444 328.800 135.194 L 328.800 177.943 318.300 188.622 C 311.655 195.380,307.851 199.537,307.939 199.945 C 308.016 200.300,312.740 205.272,318.438 210.995 L 328.797 221.400 328.798 264.184 L 328.800 306.968 307.309 328.484 L 285.817 350.000 178.509 350.000 L 71.200 350.000 71.200 199.600 L 71.200 49.200 178.378 49.200 L 285.556 49.200 307.178 70.822 M157.188 93.031 C 156.939 93.686,156.833 109.304,156.898 135.931 L 157.000 177.800 199.900 177.902 L 242.800 178.004 242.800 135.245 C 242.800 96.623,242.739 92.462,242.167 92.243 C 241.819 92.109,222.645 92.000,199.557 92.000 L 157.580 92.000 157.188 93.031 M157.052 222.100 C 156.550 223.973,156.772 306.212,157.280 306.720 C 157.788 307.228,240.027 307.450,241.900 306.948 L 242.800 306.707 242.800 263.953 L 242.800 221.200 200.047 221.200 L 157.293 221.200 157.052 222.100 " stroke="none" fill="#1c1c24" fill-rule="evenodd"></path></g></svg>