<svg id="svg" version="1.1" xmlns="http://www.w3.org/2000/svg" xmlns:xlink="http://www.w3.org/1999/xlink" width="400" height="400" viewBox="0, 0, 400,400"><g id="svgg"><path id="path0" d="M92.665 55.528 C 92.051 56.206,92.000 60.777,92.000 114.838 C 92.000 180.410,91.757 175.023,94.809 177.106 C 95.540 177.605,100.714 182.195,106.308 187.306 C 111.901 192.418,116.920 196.891,117.460 197.247 C 118.000 197.603,120.120 199.493,122.171 201.447 C 124.221 203.401,127.481 206.350,129.413 208.000 C 131.346 209.650,133.396 211.468,133.969 212.041 C 134.541 212.613,136.538 214.418,138.405 216.052 C 140.272 217.686,142.340 219.517,143.000 220.121 C 148.055 224.745,150.519 226.872,152.563 228.378 C 153.863 229.335,156.525 231.659,158.479 233.542 C 162.339 237.260,163.871 238.425,164.557 238.161 C 164.878 238.038,165.000 221.142,165.000 176.696 C 165.000 142.983,165.140 114.898,165.312 114.283 L 165.624 113.167 191.112 113.302 C 221.175 113.461,220.006 113.337,228.373 117.240 C 231.586 118.739,235.432 121.124,236.497 122.278 C 239.826 125.887,243.600 131.989,243.600 133.763 C 243.600 134.142,243.818 134.846,244.084 135.326 C 244.528 136.126,245.267 141.093,245.226 143.000 C 245.159 146.170,244.379 150.909,243.658 152.533 C 243.186 153.596,242.800 154.686,242.800 154.954 C 242.800 157.488,232.422 168.400,230.013 168.400 C 229.850 168.400,228.026 169.184,225.958 170.143 C 220.448 172.699,221.990 172.588,183.853 173.163 C 181.484 173.199,181.600 171.811,181.600 200.000 C 181.600 223.593,181.659 225.951,182.261 226.451 C 182.786 226.888,186.486 227.058,200.361 227.282 C 220.804 227.613,219.119 227.377,229.497 231.357 C 230.210 231.631,231.200 232.226,231.697 232.681 C 232.194 233.135,233.178 233.799,233.885 234.156 C 234.592 234.513,235.672 235.453,236.285 236.245 C 236.898 237.037,238.000 238.337,238.733 239.134 C 243.184 243.970,244.845 248.855,244.860 257.153 C 244.869 261.604,244.724 263.390,244.286 264.251 C 243.964 264.883,243.400 266.443,243.034 267.718 C 241.838 271.878,237.362 277.472,232.963 280.306 C 231.883 281.001,230.715 281.847,230.366 282.185 C 230.018 282.523,229.511 282.800,229.241 282.800 C 228.818 282.800,227.221 283.392,223.800 284.816 C 219.533 286.591,220.181 286.573,154.961 286.792 C 103.531 286.966,93.213 287.091,92.661 287.549 C 91.779 288.282,91.632 343.343,92.509 344.543 C 93.111 345.367,222.007 345.279,228.000 344.451 C 236.694 343.250,244.719 341.885,247.000 341.220 C 248.317 340.835,250.614 340.246,254.000 339.422 C 257.126 338.662,266.388 335.341,266.980 334.768 C 267.189 334.566,267.739 334.400,268.202 334.400 C 268.665 334.400,269.863 333.880,270.864 333.245 C 271.866 332.610,273.083 331.964,273.569 331.810 C 275.183 331.298,282.960 326.515,285.551 324.441 C 286.954 323.319,288.269 322.400,288.472 322.400 C 289.102 322.400,298.850 312.329,300.274 310.206 C 301.014 309.103,302.227 307.292,302.970 306.183 C 303.712 305.073,304.607 303.926,304.959 303.634 C 305.312 303.341,305.600 302.936,305.600 302.733 C 305.600 302.530,306.500 300.507,307.600 298.238 C 308.700 295.969,309.600 293.880,309.600 293.596 C 309.600 293.312,310.030 292.162,310.556 291.040 C 311.552 288.916,311.680 288.472,313.575 280.600 C 316.396 268.876,316.785 255.326,314.637 243.600 C 314.294 241.730,313.696 238.364,313.307 236.120 C 312.918 233.876,312.375 231.815,312.100 231.540 C 311.825 231.265,311.600 230.529,311.600 229.904 C 311.600 229.279,311.265 228.100,310.855 227.284 C 310.445 226.468,309.788 224.810,309.395 223.600 C 308.510 220.877,303.810 211.472,302.997 210.798 C 302.669 210.525,302.400 210.082,302.400 209.813 C 302.400 209.544,302.042 209.000,301.604 208.603 C 301.166 208.207,300.348 207.099,299.787 206.141 C 299.225 205.184,298.590 204.400,298.374 204.400 C 297.850 204.400,295.600 200.818,295.600 199.984 C 295.600 199.621,295.976 198.984,296.435 198.569 C 297.291 197.794,299.600 194.549,299.600 194.121 C 299.600 193.990,300.190 193.144,300.910 192.241 C 301.631 191.339,302.576 189.914,303.010 189.075 C 303.445 188.236,304.115 187.263,304.500 186.913 C 304.885 186.563,305.200 186.118,305.200 185.925 C 305.200 185.732,305.982 184.003,306.937 182.083 C 307.893 180.163,308.905 177.874,309.187 176.996 C 309.469 176.118,310.127 174.450,310.650 173.288 C 311.172 172.127,311.600 170.664,311.600 170.037 C 311.600 169.411,311.870 168.674,312.200 168.400 C 312.530 168.126,312.802 167.249,312.804 166.451 C 312.807 165.653,313.094 164.100,313.442 163.000 C 314.011 161.202,314.426 158.774,315.596 150.400 C 316.060 147.074,316.052 135.108,315.583 131.200 C 314.723 124.046,314.482 122.436,313.847 119.600 C 313.478 117.950,312.911 115.766,312.588 114.746 C 312.265 113.727,312.000 112.632,312.000 112.314 C 312.000 111.996,311.550 110.850,311.001 109.768 C 310.451 108.686,309.806 107.170,309.566 106.400 C 308.874 104.170,305.064 96.723,304.507 96.509 C 304.228 96.402,304.000 96.076,304.000 95.784 C 304.000 95.091,301.579 91.200,301.148 91.200 C 300.966 91.200,300.469 90.525,300.044 89.700 C 298.626 86.947,287.465 76.680,281.800 72.916 C 279.392 71.316,270.395 66.413,268.800 65.831 C 259.515 62.442,257.052 61.579,255.000 60.993 C 253.680 60.617,252.150 60.130,251.600 59.911 C 250.576 59.504,248.721 59.143,243.800 58.390 C 242.260 58.154,240.460 57.771,239.800 57.537 C 237.958 56.886,230.945 55.994,223.200 55.424 C 210.478 54.489,93.521 54.582,92.665 55.528 " stroke="none" fill="#fbfbfb" fill-rule="evenodd"></path><path id="path1" d="M49.200 0.389 C 46.259 0.708,43.377 1.520,38.303 3.462 C 36.379 4.198,34.624 4.800,34.403 4.800 C 34.181 4.800,34.000 4.980,34.000 5.200 C 34.000 5.420,33.685 5.601,33.300 5.603 C 32.915 5.604,32.060 5.970,31.400 6.415 C 30.740 6.861,29.660 7.490,29.000 7.814 C 22.571 10.967,7.200 26.851,7.200 30.341 C 7.200 30.594,7.047 30.800,6.861 30.800 C 5.715 30.800,0.973 44.601,0.400 49.600 C -0.047 53.507,-0.049 346.466,0.398 350.400 C 2.115 365.500,15.651 385.392,28.734 392.043 C 29.320 392.341,30.430 392.974,31.200 393.450 C 32.969 394.542,40.799 397.607,45.000 398.852 L 48.200 399.800 200.000 399.800 L 351.800 399.800 355.400 398.753 C 371.305 394.128,386.269 382.686,392.478 370.400 C 392.756 369.850,393.098 369.310,393.239 369.200 C 393.892 368.687,397.369 360.039,398.465 356.200 C 399.909 351.141,399.936 348.284,399.940 199.800 C 399.943 51.621,399.917 48.897,398.450 43.800 C 397.319 39.870,393.901 31.331,393.247 30.800 C 393.111 30.690,392.678 29.965,392.285 29.189 C 389.094 22.893,377.027 10.775,371.000 7.814 C 370.340 7.490,369.260 6.861,368.600 6.415 C 367.940 5.970,367.100 5.604,366.733 5.603 C 366.367 5.601,366.007 5.458,365.933 5.284 C 365.766 4.888,360.083 2.686,355.600 1.280 L 352.200 0.215 202.000 0.161 C 119.390 0.132,50.630 0.235,49.200 0.389 M223.200 55.424 C 230.945 55.994,237.958 56.886,239.800 57.537 C 240.460 57.771,242.260 58.154,243.800 58.390 C 248.721 59.143,250.576 59.504,251.600 59.911 C 252.150 60.130,253.680 60.617,255.000 60.993 C 257.052 61.579,259.515 62.442,268.800 65.831 C 270.395 66.413,279.392 71.316,281.800 72.916 C 287.465 76.680,298.626 86.947,300.044 89.700 C 300.469 90.525,300.966 91.200,301.148 91.200 C 301.579 91.200,304.000 95.091,304.000 95.784 C 304.000 96.076,304.228 96.402,304.507 96.509 C 305.064 96.723,308.874 104.170,309.566 106.400 C 309.806 107.170,310.451 108.686,311.001 109.768 C 311.550 110.850,312.000 111.996,312.000 112.314 C 312.000 112.632,312.265 113.727,312.588 114.746 C 312.911 115.766,313.478 117.950,313.847 119.600 C 314.482 122.436,314.723 124.046,315.583 131.200 C 316.052 135.108,316.060 147.074,315.596 150.400 C 314.426 158.774,314.011 161.202,313.442 163.000 C 313.094 164.100,312.807 165.653,312.804 166.451 C 312.802 167.249,312.530 168.126,312.200 168.400 C 311.870 168.674,311.600 169.411,311.600 170.037 C 311.600 170.664,311.172 172.127,310.650 173.288 C 310.127 174.450,309.469 176.118,309.187 176.996 C 308.905 177.874,307.893 180.163,306.937 182.083 C 305.982 184.003,305.200 185.732,305.200 185.925 C 305.200 186.118,304.885 186.563,304.500 186.913 C 304.115 187.263,303.445 188.236,303.010 189.075 C 302.576 189.914,301.631 191.339,300.910 192.241 C 300.190 193.144,299.600 193.990,299.600 194.121 C 299.600 194.549,297.291 197.794,296.435 198.569 C 295.976 198.984,295.600 199.621,295.600 199.984 C 295.600 200.818,297.850 204.400,298.374 204.400 C 298.590 204.400,299.225 205.184,299.787 206.141 C 300.348 207.099,301.166 208.207,301.604 208.603 C 302.042 209.000,302.400 209.544,302.400 209.813 C 302.400 210.082,302.669 210.525,302.997 210.798 C 303.810 211.472,308.510 220.877,309.395 223.600 C 309.788 224.810,310.445 226.468,310.855 227.284 C 311.265 228.100,311.600 229.279,311.600 229.904 C 311.600 230.529,311.825 231.265,312.100 231.540 C 312.375 231.815,312.918 233.876,313.307 236.120 C 313.696 238.364,314.294 241.730,314.637 243.600 C 316.785 255.326,316.396 268.876,313.575 280.600 C 311.680 288.472,311.552 288.916,310.556 291.040 C 310.030 292.162,309.600 293.312,309.600 293.596 C 309.600 293.880,308.700 295.969,307.600 298.238 C 306.500 300.507,305.600 302.530,305.600 302.733 C 305.600 302.936,305.312 303.341,304.959 303.634 C 304.607 303.926,303.712 305.073,302.970 306.183 C 302.227 307.292,301.014 309.103,300.274 310.206 C 298.850 312.329,289.102 322.400,288.472 322.400 C 288.269 322.400,286.954 323.319,285.551 324.441 C 282.960 326.515,275.183 331.298,273.569 331.810 C 273.083 331.964,271.866 332.610,270.864 333.245 C 269.863 333.880,268.665 334.400,268.202 334.400 C 267.739 334.400,267.189 334.566,266.980 334.768 C 266.388 335.341,257.126 338.662,254.000 339.422 C 250.614 340.246,248.317 340.835,247.000 341.220 C 244.719 341.885,236.694 343.250,228.000 344.451 C 222.007 345.279,93.111 345.367,92.509 344.543 C 91.632 343.343,91.779 288.282,92.661 287.549 C 93.213 287.091,103.531 286.966,154.961 286.792 C 220.181 286.573,219.533 286.591,223.800 284.816 C 227.221 283.392,228.818 282.800,229.241 282.800 C 229.511 282.800,230.018 282.523,230.366 282.185 C 230.715 281.847,231.883 281.001,232.963 280.306 C 237.362 277.472,241.838 271.878,243.034 267.718 C 243.400 266.443,243.964 264.883,244.286 264.251 C 244.724 263.390,244.869 261.604,244.860 257.153 C 244.845 248.855,243.184 243.970,238.733 239.134 C 238.000 238.337,236.898 237.037,236.285 236.245 C 235.672 235.453,234.592 234.513,233.885 234.156 C 233.178 233.799,232.194 233.135,231.697 232.681 C 231.200 232.226,230.210 231.631,229.497 231.357 C 219.119 227.377,220.804 227.613,200.361 227.282 C 186.486 227.058,182.786 226.888,182.261 226.451 C 181.659 225.951,181.600 223.593,181.600 200.000 C 181.600 171.811,181.484 173.199,183.853 173.163 C 221.990 172.588,220.448 172.699,225.958 170.143 C 228.026 169.184,229.850 168.400,230.013 168.400 C 232.422 168.400,242.800 157.488,242.800 154.954 C 242.800 154.686,243.186 153.596,243.658 152.533 C 245.372 148.672,245.633 138.121,244.084 135.326 C 243.818 134.846,243.600 134.142,243.600 133.763 C 243.600 131.989,239.826 125.887,236.497 122.278 C 235.432 121.124,231.586 118.739,228.373 117.240 C 220.006 113.337,221.175 113.461,191.112 113.302 L 165.624 113.167 165.312 114.283 C 165.140 114.898,165.000 142.983,165.000 176.696 C 165.000 221.142,164.878 238.038,164.557 238.161 C 163.871 238.425,162.339 237.260,158.479 233.542 C 156.525 231.659,153.863 229.335,152.563 228.378 C 150.519 226.872,148.055 224.745,143.000 220.121 C 142.340 219.517,140.272 217.686,138.405 216.052 C 136.538 214.418,134.541 212.613,133.969 212.041 C 133.396 211.468,131.346 209.650,129.413 208.000 C 127.481 206.350,124.221 203.401,122.171 201.447 C 120.120 199.493,118.000 197.603,117.460 197.247 C 116.920 196.891,111.901 192.418,106.308 187.306 C 100.714 182.195,95.540 177.605,94.809 177.106 C 91.757 175.023,92.000 180.410,92.000 114.838 C 92.000 60.777,92.051 56.206,92.665 55.528 C 93.521 54.582,210.478 54.489,223.200 55.424 " stroke="none" fill="#0bc3cb" fill-rule="evenodd"></path></g></svg>